<mxfile host="Electron" modified="2024-02-07T19:42:57.969Z" agent="Mozilla/5.0 (X11; Linux x86_64) AppleWebKit/537.36 (KHTML, like Gecko) draw.io/23.0.2 Chrome/120.0.6099.109 Electron/28.1.0 Safari/537.36" etag="Qp4sZV6hdUVW3pQ81WUd" version="23.0.2" type="device">
  <diagram name="Page-1" id="gKezTDWPGaHy0wov9wzG">
    <mxGraphModel dx="1949" dy="1204" grid="1" gridSize="10" guides="1" tooltips="1" connect="1" arrows="1" fold="1" page="1" pageScale="1" pageWidth="1169" pageHeight="827" math="0" shadow="0">
      <root>
        <mxCell id="0" />
        <mxCell id="1" parent="0" />
        <mxCell id="g34Jp6b557XgKTqLbAfI-1" value="" style="rounded=0;whiteSpace=wrap;html=1;fillColor=#f8cecc;strokeColor=#b85450;" vertex="1" parent="1">
          <mxGeometry width="1140" height="260" as="geometry" />
        </mxCell>
        <mxCell id="g34Jp6b557XgKTqLbAfI-2" value="" style="edgeStyle=orthogonalEdgeStyle;rounded=0;orthogonalLoop=1;jettySize=auto;html=1;" edge="1" parent="1" source="g34Jp6b557XgKTqLbAfI-3" target="g34Jp6b557XgKTqLbAfI-9">
          <mxGeometry relative="1" as="geometry" />
        </mxCell>
        <mxCell id="g34Jp6b557XgKTqLbAfI-3" value="Project Plan &amp;amp;&lt;br&gt;Algorithm Research" style="rounded=1;whiteSpace=wrap;html=1;" vertex="1" parent="1">
          <mxGeometry x="20" y="30" width="120" height="60" as="geometry" />
        </mxCell>
        <mxCell id="g34Jp6b557XgKTqLbAfI-4" value="" style="edgeStyle=orthogonalEdgeStyle;rounded=0;orthogonalLoop=1;jettySize=auto;html=1;" edge="1" parent="1" source="g34Jp6b557XgKTqLbAfI-5" target="g34Jp6b557XgKTqLbAfI-11">
          <mxGeometry relative="1" as="geometry" />
        </mxCell>
        <mxCell id="g34Jp6b557XgKTqLbAfI-5" value="Matlab Function&lt;br&gt;Development" style="rounded=1;whiteSpace=wrap;html=1;" vertex="1" parent="1">
          <mxGeometry x="300" y="30" width="120" height="60" as="geometry" />
        </mxCell>
        <mxCell id="g34Jp6b557XgKTqLbAfI-6" value="Unit Test&amp;nbsp; Instance Define" style="rounded=1;whiteSpace=wrap;html=1;" vertex="1" parent="1">
          <mxGeometry x="300" y="110" width="120" height="60" as="geometry" />
        </mxCell>
        <mxCell id="g34Jp6b557XgKTqLbAfI-7" value="" style="edgeStyle=orthogonalEdgeStyle;rounded=0;orthogonalLoop=1;jettySize=auto;html=1;" edge="1" parent="1" source="g34Jp6b557XgKTqLbAfI-9" target="g34Jp6b557XgKTqLbAfI-5">
          <mxGeometry relative="1" as="geometry" />
        </mxCell>
        <mxCell id="g34Jp6b557XgKTqLbAfI-8" style="edgeStyle=orthogonalEdgeStyle;rounded=0;orthogonalLoop=1;jettySize=auto;html=1;entryX=0;entryY=0.5;entryDx=0;entryDy=0;exitX=1;exitY=0.5;exitDx=0;exitDy=0;" edge="1" parent="1" source="g34Jp6b557XgKTqLbAfI-9" target="g34Jp6b557XgKTqLbAfI-6">
          <mxGeometry relative="1" as="geometry">
            <Array as="points">
              <mxPoint x="290" y="60" />
              <mxPoint x="290" y="140" />
            </Array>
          </mxGeometry>
        </mxCell>
        <mxCell id="g34Jp6b557XgKTqLbAfI-9" value="Architecture Define" style="rounded=1;whiteSpace=wrap;html=1;" vertex="1" parent="1">
          <mxGeometry x="160" y="30" width="120" height="60" as="geometry" />
        </mxCell>
        <mxCell id="g34Jp6b557XgKTqLbAfI-10" value="" style="edgeStyle=orthogonalEdgeStyle;rounded=0;orthogonalLoop=1;jettySize=auto;html=1;" edge="1" parent="1" source="g34Jp6b557XgKTqLbAfI-11" target="g34Jp6b557XgKTqLbAfI-13">
          <mxGeometry relative="1" as="geometry" />
        </mxCell>
        <mxCell id="g34Jp6b557XgKTqLbAfI-11" value="Unit Test" style="rounded=1;whiteSpace=wrap;html=1;" vertex="1" parent="1">
          <mxGeometry x="440" y="30" width="120" height="60" as="geometry" />
        </mxCell>
        <mxCell id="g34Jp6b557XgKTqLbAfI-12" value="" style="edgeStyle=orthogonalEdgeStyle;rounded=0;orthogonalLoop=1;jettySize=auto;html=1;" edge="1" parent="1" source="g34Jp6b557XgKTqLbAfI-13" target="g34Jp6b557XgKTqLbAfI-21">
          <mxGeometry relative="1" as="geometry" />
        </mxCell>
        <mxCell id="g34Jp6b557XgKTqLbAfI-13" value="Regression Test" style="rounded=1;whiteSpace=wrap;html=1;" vertex="1" parent="1">
          <mxGeometry x="580" y="30" width="120" height="60" as="geometry" />
        </mxCell>
        <mxCell id="g34Jp6b557XgKTqLbAfI-14" style="edgeStyle=orthogonalEdgeStyle;rounded=0;orthogonalLoop=1;jettySize=auto;html=1;exitX=0;exitY=0.5;exitDx=0;exitDy=0;endArrow=none;endFill=0;startArrow=classic;startFill=1;" edge="1" parent="1" source="g34Jp6b557XgKTqLbAfI-15">
          <mxGeometry relative="1" as="geometry">
            <mxPoint x="290" y="140" as="targetPoint" />
            <Array as="points">
              <mxPoint x="290" y="220" />
            </Array>
          </mxGeometry>
        </mxCell>
        <mxCell id="g34Jp6b557XgKTqLbAfI-15" value="UI design" style="rounded=1;whiteSpace=wrap;html=1;" vertex="1" parent="1">
          <mxGeometry x="300" y="190" width="120" height="60" as="geometry" />
        </mxCell>
        <mxCell id="g34Jp6b557XgKTqLbAfI-16" value="" style="edgeStyle=orthogonalEdgeStyle;rounded=0;orthogonalLoop=1;jettySize=auto;html=1;" edge="1" parent="1">
          <mxGeometry relative="1" as="geometry">
            <mxPoint x="420" y="60" as="sourcePoint" />
            <mxPoint x="440" y="60" as="targetPoint" />
          </mxGeometry>
        </mxCell>
        <mxCell id="g34Jp6b557XgKTqLbAfI-17" value="" style="endArrow=none;html=1;rounded=0;" edge="1" parent="1">
          <mxGeometry width="50" height="50" relative="1" as="geometry">
            <mxPoint x="420" y="139.8" as="sourcePoint" />
            <mxPoint x="430" y="139.8" as="targetPoint" />
          </mxGeometry>
        </mxCell>
        <mxCell id="g34Jp6b557XgKTqLbAfI-18" value="" style="endArrow=none;html=1;rounded=0;" edge="1" parent="1">
          <mxGeometry width="50" height="50" relative="1" as="geometry">
            <mxPoint x="420" y="219.8" as="sourcePoint" />
            <mxPoint x="430" y="219.8" as="targetPoint" />
          </mxGeometry>
        </mxCell>
        <mxCell id="g34Jp6b557XgKTqLbAfI-19" value="" style="endArrow=none;html=1;rounded=0;" edge="1" parent="1">
          <mxGeometry width="50" height="50" relative="1" as="geometry">
            <mxPoint x="430" y="60" as="sourcePoint" />
            <mxPoint x="430" y="220" as="targetPoint" />
          </mxGeometry>
        </mxCell>
        <mxCell id="g34Jp6b557XgKTqLbAfI-20" value="" style="edgeStyle=orthogonalEdgeStyle;rounded=0;orthogonalLoop=1;jettySize=auto;html=1;" edge="1" parent="1" source="g34Jp6b557XgKTqLbAfI-21" target="g34Jp6b557XgKTqLbAfI-23">
          <mxGeometry relative="1" as="geometry" />
        </mxCell>
        <mxCell id="g34Jp6b557XgKTqLbAfI-21" value="System Intergration" style="rounded=1;whiteSpace=wrap;html=1;" vertex="1" parent="1">
          <mxGeometry x="720" y="30" width="120" height="60" as="geometry" />
        </mxCell>
        <mxCell id="g34Jp6b557XgKTqLbAfI-22" value="" style="edgeStyle=orthogonalEdgeStyle;rounded=0;orthogonalLoop=1;jettySize=auto;html=1;" edge="1" parent="1" source="g34Jp6b557XgKTqLbAfI-23" target="g34Jp6b557XgKTqLbAfI-55">
          <mxGeometry relative="1" as="geometry" />
        </mxCell>
        <mxCell id="g34Jp6b557XgKTqLbAfI-23" value="E2E Test" style="rounded=1;whiteSpace=wrap;html=1;" vertex="1" parent="1">
          <mxGeometry x="860" y="30" width="120" height="60" as="geometry" />
        </mxCell>
        <mxCell id="g34Jp6b557XgKTqLbAfI-24" value="Laplace Comparation" style="rounded=1;whiteSpace=wrap;html=1;" vertex="1" parent="1">
          <mxGeometry x="860" y="110" width="120" height="60" as="geometry" />
        </mxCell>
        <mxCell id="g34Jp6b557XgKTqLbAfI-25" value="" style="endArrow=classic;html=1;rounded=0;" edge="1" parent="1">
          <mxGeometry width="50" height="50" relative="1" as="geometry">
            <mxPoint x="850" y="140" as="sourcePoint" />
            <mxPoint x="860" y="139.8" as="targetPoint" />
          </mxGeometry>
        </mxCell>
        <mxCell id="g34Jp6b557XgKTqLbAfI-26" value="" style="endArrow=none;html=1;rounded=0;" edge="1" parent="1">
          <mxGeometry width="50" height="50" relative="1" as="geometry">
            <mxPoint x="850" y="140" as="sourcePoint" />
            <mxPoint x="850" y="60" as="targetPoint" />
          </mxGeometry>
        </mxCell>
        <mxCell id="g34Jp6b557XgKTqLbAfI-27" value="Matlab Project Imp" style="rounded=0;whiteSpace=wrap;html=1;fillColor=#d5e8d4;strokeColor=#82b366;" vertex="1" parent="1">
          <mxGeometry x="1020" width="120" height="30" as="geometry" />
        </mxCell>
        <mxCell id="g34Jp6b557XgKTqLbAfI-28" value="" style="rounded=0;whiteSpace=wrap;html=1;fillColor=#dae8fc;strokeColor=#6c8ebf;" vertex="1" parent="1">
          <mxGeometry y="280" width="1140" height="260" as="geometry" />
        </mxCell>
        <mxCell id="g34Jp6b557XgKTqLbAfI-29" value="" style="edgeStyle=orthogonalEdgeStyle;rounded=0;orthogonalLoop=1;jettySize=auto;html=1;" edge="1" parent="1" source="g34Jp6b557XgKTqLbAfI-30" target="g34Jp6b557XgKTqLbAfI-54">
          <mxGeometry relative="1" as="geometry" />
        </mxCell>
        <mxCell id="g34Jp6b557XgKTqLbAfI-30" value="Porting code from matlab to python" style="rounded=1;whiteSpace=wrap;html=1;" vertex="1" parent="1">
          <mxGeometry x="20" y="310" width="120" height="60" as="geometry" />
        </mxCell>
        <mxCell id="g34Jp6b557XgKTqLbAfI-31" value="" style="edgeStyle=orthogonalEdgeStyle;rounded=0;orthogonalLoop=1;jettySize=auto;html=1;" edge="1" parent="1" source="g34Jp6b557XgKTqLbAfI-32" target="g34Jp6b557XgKTqLbAfI-37">
          <mxGeometry relative="1" as="geometry" />
        </mxCell>
        <mxCell id="g34Jp6b557XgKTqLbAfI-32" value="Python Function&lt;br&gt;Development" style="rounded=1;whiteSpace=wrap;html=1;" vertex="1" parent="1">
          <mxGeometry x="300" y="310" width="120" height="60" as="geometry" />
        </mxCell>
        <mxCell id="g34Jp6b557XgKTqLbAfI-33" value="Unit Test&amp;nbsp; Instance Define" style="rounded=1;whiteSpace=wrap;html=1;" vertex="1" parent="1">
          <mxGeometry x="300" y="390" width="120" height="60" as="geometry" />
        </mxCell>
        <mxCell id="g34Jp6b557XgKTqLbAfI-34" value="" style="edgeStyle=orthogonalEdgeStyle;rounded=0;orthogonalLoop=1;jettySize=auto;html=1;" edge="1" parent="1" target="g34Jp6b557XgKTqLbAfI-32">
          <mxGeometry relative="1" as="geometry">
            <mxPoint x="280" y="340" as="sourcePoint" />
          </mxGeometry>
        </mxCell>
        <mxCell id="g34Jp6b557XgKTqLbAfI-35" style="edgeStyle=orthogonalEdgeStyle;rounded=0;orthogonalLoop=1;jettySize=auto;html=1;entryX=0;entryY=0.5;entryDx=0;entryDy=0;exitX=1;exitY=0.5;exitDx=0;exitDy=0;" edge="1" parent="1" target="g34Jp6b557XgKTqLbAfI-33">
          <mxGeometry relative="1" as="geometry">
            <mxPoint x="280" y="340" as="sourcePoint" />
            <Array as="points">
              <mxPoint x="290" y="340" />
              <mxPoint x="290" y="420" />
            </Array>
          </mxGeometry>
        </mxCell>
        <mxCell id="g34Jp6b557XgKTqLbAfI-36" value="" style="edgeStyle=orthogonalEdgeStyle;rounded=0;orthogonalLoop=1;jettySize=auto;html=1;" edge="1" parent="1" source="g34Jp6b557XgKTqLbAfI-37" target="g34Jp6b557XgKTqLbAfI-39">
          <mxGeometry relative="1" as="geometry" />
        </mxCell>
        <mxCell id="g34Jp6b557XgKTqLbAfI-37" value="Unit Test" style="rounded=1;whiteSpace=wrap;html=1;" vertex="1" parent="1">
          <mxGeometry x="440" y="310" width="120" height="60" as="geometry" />
        </mxCell>
        <mxCell id="g34Jp6b557XgKTqLbAfI-38" value="" style="edgeStyle=orthogonalEdgeStyle;rounded=0;orthogonalLoop=1;jettySize=auto;html=1;" edge="1" parent="1" source="g34Jp6b557XgKTqLbAfI-39" target="g34Jp6b557XgKTqLbAfI-47">
          <mxGeometry relative="1" as="geometry" />
        </mxCell>
        <mxCell id="g34Jp6b557XgKTqLbAfI-39" value="Regression Test" style="rounded=1;whiteSpace=wrap;html=1;" vertex="1" parent="1">
          <mxGeometry x="580" y="310" width="120" height="60" as="geometry" />
        </mxCell>
        <mxCell id="g34Jp6b557XgKTqLbAfI-40" style="edgeStyle=orthogonalEdgeStyle;rounded=0;orthogonalLoop=1;jettySize=auto;html=1;exitX=0;exitY=0.5;exitDx=0;exitDy=0;endArrow=none;endFill=0;startArrow=classic;startFill=1;" edge="1" parent="1" source="g34Jp6b557XgKTqLbAfI-41">
          <mxGeometry relative="1" as="geometry">
            <mxPoint x="290" y="420" as="targetPoint" />
            <Array as="points">
              <mxPoint x="290" y="500" />
            </Array>
          </mxGeometry>
        </mxCell>
        <mxCell id="g34Jp6b557XgKTqLbAfI-41" value="UI design" style="rounded=1;whiteSpace=wrap;html=1;" vertex="1" parent="1">
          <mxGeometry x="300" y="470" width="120" height="60" as="geometry" />
        </mxCell>
        <mxCell id="g34Jp6b557XgKTqLbAfI-42" value="" style="edgeStyle=orthogonalEdgeStyle;rounded=0;orthogonalLoop=1;jettySize=auto;html=1;" edge="1" parent="1">
          <mxGeometry relative="1" as="geometry">
            <mxPoint x="420" y="340" as="sourcePoint" />
            <mxPoint x="440" y="340" as="targetPoint" />
          </mxGeometry>
        </mxCell>
        <mxCell id="g34Jp6b557XgKTqLbAfI-43" value="" style="endArrow=none;html=1;rounded=0;" edge="1" parent="1">
          <mxGeometry width="50" height="50" relative="1" as="geometry">
            <mxPoint x="420" y="419.79999999999995" as="sourcePoint" />
            <mxPoint x="430" y="419.79999999999995" as="targetPoint" />
          </mxGeometry>
        </mxCell>
        <mxCell id="g34Jp6b557XgKTqLbAfI-44" value="" style="endArrow=none;html=1;rounded=0;" edge="1" parent="1">
          <mxGeometry width="50" height="50" relative="1" as="geometry">
            <mxPoint x="420" y="499.79999999999995" as="sourcePoint" />
            <mxPoint x="430" y="499.79999999999995" as="targetPoint" />
          </mxGeometry>
        </mxCell>
        <mxCell id="g34Jp6b557XgKTqLbAfI-45" value="" style="endArrow=none;html=1;rounded=0;" edge="1" parent="1">
          <mxGeometry width="50" height="50" relative="1" as="geometry">
            <mxPoint x="430" y="340" as="sourcePoint" />
            <mxPoint x="430" y="500" as="targetPoint" />
          </mxGeometry>
        </mxCell>
        <mxCell id="g34Jp6b557XgKTqLbAfI-46" value="" style="edgeStyle=orthogonalEdgeStyle;rounded=0;orthogonalLoop=1;jettySize=auto;html=1;" edge="1" parent="1" source="g34Jp6b557XgKTqLbAfI-47" target="g34Jp6b557XgKTqLbAfI-49">
          <mxGeometry relative="1" as="geometry" />
        </mxCell>
        <mxCell id="g34Jp6b557XgKTqLbAfI-47" value="System Intergration" style="rounded=1;whiteSpace=wrap;html=1;" vertex="1" parent="1">
          <mxGeometry x="720" y="310" width="120" height="60" as="geometry" />
        </mxCell>
        <mxCell id="g34Jp6b557XgKTqLbAfI-48" value="" style="edgeStyle=orthogonalEdgeStyle;rounded=0;orthogonalLoop=1;jettySize=auto;html=1;" edge="1" parent="1" source="g34Jp6b557XgKTqLbAfI-49" target="g34Jp6b557XgKTqLbAfI-56">
          <mxGeometry relative="1" as="geometry" />
        </mxCell>
        <mxCell id="g34Jp6b557XgKTqLbAfI-49" value="E2E Test" style="rounded=1;whiteSpace=wrap;html=1;" vertex="1" parent="1">
          <mxGeometry x="860" y="310" width="120" height="60" as="geometry" />
        </mxCell>
        <mxCell id="g34Jp6b557XgKTqLbAfI-50" value="Laplace Comparation" style="rounded=1;whiteSpace=wrap;html=1;" vertex="1" parent="1">
          <mxGeometry x="860" y="390" width="120" height="60" as="geometry" />
        </mxCell>
        <mxCell id="g34Jp6b557XgKTqLbAfI-51" value="" style="endArrow=classic;html=1;rounded=0;" edge="1" parent="1">
          <mxGeometry width="50" height="50" relative="1" as="geometry">
            <mxPoint x="850" y="420" as="sourcePoint" />
            <mxPoint x="860" y="419.79999999999995" as="targetPoint" />
          </mxGeometry>
        </mxCell>
        <mxCell id="g34Jp6b557XgKTqLbAfI-52" value="" style="endArrow=none;html=1;rounded=0;" edge="1" parent="1">
          <mxGeometry width="50" height="50" relative="1" as="geometry">
            <mxPoint x="850" y="420" as="sourcePoint" />
            <mxPoint x="850" y="340" as="targetPoint" />
          </mxGeometry>
        </mxCell>
        <mxCell id="g34Jp6b557XgKTqLbAfI-53" value="Python Project Imp" style="rounded=0;whiteSpace=wrap;html=1;fillColor=#d5e8d4;strokeColor=#82b366;" vertex="1" parent="1">
          <mxGeometry x="1020" y="280" width="120" height="30" as="geometry" />
        </mxCell>
        <mxCell id="g34Jp6b557XgKTqLbAfI-54" value="Build Tri-map&lt;br&gt;Generation Core" style="rounded=1;whiteSpace=wrap;html=1;" vertex="1" parent="1">
          <mxGeometry x="160" y="310" width="120" height="60" as="geometry" />
        </mxCell>
        <mxCell id="g34Jp6b557XgKTqLbAfI-55" value="Performance Evaluation and Tunning" style="rounded=1;whiteSpace=wrap;html=1;" vertex="1" parent="1">
          <mxGeometry x="1000" y="30" width="120" height="60" as="geometry" />
        </mxCell>
        <mxCell id="g34Jp6b557XgKTqLbAfI-56" value="Performance Evaluation and Tunning" style="rounded=1;whiteSpace=wrap;html=1;" vertex="1" parent="1">
          <mxGeometry x="1000" y="310" width="120" height="60" as="geometry" />
        </mxCell>
      </root>
    </mxGraphModel>
  </diagram>
</mxfile>
